<mxfile host="app.diagrams.net" modified="2022-05-15T17:37:07.638Z" agent="5.0 (Windows NT 10.0; Win64; x64) AppleWebKit/537.36 (KHTML, like Gecko) Chrome/101.0.4951.54 Safari/537.36" etag="tj_lkRHyWHFXR0NaR5i1" version="18.0.3" type="github">
  <diagram id="_tv3Oz9xiJhUWaCxdsCX" name="Page-1">
    <mxGraphModel dx="1038" dy="547" grid="1" gridSize="10" guides="1" tooltips="1" connect="1" arrows="1" fold="1" page="1" pageScale="1" pageWidth="827" pageHeight="583" math="0" shadow="0">
      <root>
        <mxCell id="0" />
        <mxCell id="1" parent="0" />
        <mxCell id="gGoESQNeSy9OlhIn3Cce-16" style="edgeStyle=orthogonalEdgeStyle;rounded=0;orthogonalLoop=1;jettySize=auto;html=1;exitX=1;exitY=0.25;exitDx=0;exitDy=0;entryX=0;entryY=0.5;entryDx=0;entryDy=0;" edge="1" parent="1" source="gGoESQNeSy9OlhIn3Cce-1" target="gGoESQNeSy9OlhIn3Cce-5">
          <mxGeometry relative="1" as="geometry" />
        </mxCell>
        <mxCell id="gGoESQNeSy9OlhIn3Cce-1" value="服务" style="rounded=0;whiteSpace=wrap;html=1;" vertex="1" parent="1">
          <mxGeometry x="124" y="340" width="580" height="60" as="geometry" />
        </mxCell>
        <mxCell id="gGoESQNeSy9OlhIn3Cce-8" style="edgeStyle=orthogonalEdgeStyle;rounded=0;orthogonalLoop=1;jettySize=auto;html=1;exitX=0.5;exitY=1;exitDx=0;exitDy=0;entryX=0.5;entryY=0;entryDx=0;entryDy=0;" edge="1" parent="1" source="gGoESQNeSy9OlhIn3Cce-2" target="gGoESQNeSy9OlhIn3Cce-3">
          <mxGeometry relative="1" as="geometry" />
        </mxCell>
        <mxCell id="gGoESQNeSy9OlhIn3Cce-2" value="浏览器" style="rounded=1;whiteSpace=wrap;html=1;" vertex="1" parent="1">
          <mxGeometry x="340" y="30" width="120" height="60" as="geometry" />
        </mxCell>
        <mxCell id="gGoESQNeSy9OlhIn3Cce-3" value="nginx" style="rounded=1;whiteSpace=wrap;html=1;" vertex="1" parent="1">
          <mxGeometry x="340" y="130" width="120" height="60" as="geometry" />
        </mxCell>
        <mxCell id="gGoESQNeSy9OlhIn3Cce-4" value="mysql" style="ellipse;whiteSpace=wrap;html=1;" vertex="1" parent="1">
          <mxGeometry x="330" y="440" width="120" height="80" as="geometry" />
        </mxCell>
        <mxCell id="gGoESQNeSy9OlhIn3Cce-5" value="redis" style="ellipse;whiteSpace=wrap;html=1;" vertex="1" parent="1">
          <mxGeometry x="760" y="292" width="120" height="80" as="geometry" />
        </mxCell>
        <mxCell id="gGoESQNeSy9OlhIn3Cce-10" style="edgeStyle=orthogonalEdgeStyle;rounded=0;orthogonalLoop=1;jettySize=auto;html=1;" edge="1" parent="1" source="gGoESQNeSy9OlhIn3Cce-6">
          <mxGeometry relative="1" as="geometry">
            <mxPoint x="400" y="210" as="targetPoint" />
          </mxGeometry>
        </mxCell>
        <mxCell id="gGoESQNeSy9OlhIn3Cce-11" value="" style="edgeStyle=orthogonalEdgeStyle;rounded=0;orthogonalLoop=1;jettySize=auto;html=1;" edge="1" parent="1" source="gGoESQNeSy9OlhIn3Cce-6">
          <mxGeometry relative="1" as="geometry">
            <mxPoint x="400" y="350" as="targetPoint" />
          </mxGeometry>
        </mxCell>
        <mxCell id="gGoESQNeSy9OlhIn3Cce-6" value="spirng security过滤" style="ellipse;whiteSpace=wrap;html=1;" vertex="1" parent="1">
          <mxGeometry x="340" y="220" width="120" height="80" as="geometry" />
        </mxCell>
        <mxCell id="gGoESQNeSy9OlhIn3Cce-14" value="" style="endArrow=none;html=1;rounded=0;exitX=0.5;exitY=0;exitDx=0;exitDy=0;" edge="1" parent="1" source="gGoESQNeSy9OlhIn3Cce-4" target="gGoESQNeSy9OlhIn3Cce-1">
          <mxGeometry width="50" height="50" relative="1" as="geometry">
            <mxPoint x="380" y="450" as="sourcePoint" />
            <mxPoint x="430" y="400" as="targetPoint" />
          </mxGeometry>
        </mxCell>
      </root>
    </mxGraphModel>
  </diagram>
</mxfile>
